<svg width="30" height="30" viewBox="0 0 30 30" fill="none" xmlns="http://www.w3.org/2000/svg">
<ellipse cx="23.2894" cy="6.92308" rx="6.71053" ry="6.92308" fill="white"/>
<path d="M21.3158 15.7689C25.2399 15.7689 28.5629 19.1373 26.6859 22.5833C26.4829 22.9559 26.2629 23.3202 26.0261 23.675C24.4647 26.0153 22.2453 27.8393 19.6487 28.9164C17.052 29.9935 14.1948 30.2753 11.4382 29.7262C8.68162 29.1771 6.14954 27.8217 4.16217 25.8315C2.17479 23.8413 0.821368 21.3056 0.273051 18.5451C-0.275265 15.7846 0.00615083 12.9233 1.08171 10.323C2.15727 7.72264 3.97867 5.5001 6.31558 3.9364C6.66474 3.70277 7.02306 3.48541 7.38939 3.28468C10.8357 1.39631 14.2105 4.72882 14.2105 8.65853V8.65853C14.2105 12.5827 17.3917 15.7689 21.3158 15.7689V15.7689Z" fill="#760ED1"/>
<ellipse cx="23.2894" cy="6.92308" rx="1.97368" ry="1.92308" fill="#202224"/>
</svg>
